<?xml version="1.0" standalone="no"?>
<!DOCTYPE svg PUBLIC "-//W3C//DTD SVG 20010904//EN"
 "http://www.w3.org/TR/2001/REC-SVG-20010904/DTD/svg10.dtd">
<svg version="1.0" xmlns="http://www.w3.org/2000/svg"
 width="310.000000pt" height="310.000000pt" viewBox="0 0 310.000000 310.000000"
 preserveAspectRatio="xMidYMid meet">
<metadata>
Created by potrace 1.11, written by Peter Selinger 2001-2013
</metadata>
<g transform="translate(0.000000,310.000000) scale(0.100000,-0.100000)"
fill="#000000" stroke="none">
<path d="M565 2340 c-2 -3 46 -136 107 -295 60 -160 115 -306 122 -325 16 -44
312 -829 321 -852 6 -15 21 -18 99 -18 l91 0 114 303 c63 166 133 352 156 412
24 61 71 184 105 275 34 91 90 239 125 330 35 91 60 167 55 170 -11 7 -179 4
-186 -3 -9 -9 -383 -1012 -411 -1102 -14 -44 -31 -102 -37 -130 -13 -53 -14
-53 -31 25 -8 36 -65 211 -88 270 -14 36 -62 164 -107 285 -45 121 -85 230
-90 242 -5 12 -41 109 -81 215 -39 106 -73 195 -75 197 -5 6 -185 7 -189 1z"/>
<path d="M1932 1785 c-102 -22 -186 -83 -214 -154 -32 -83 -2 -193 68 -247 36
-28 151 -83 249 -118 142 -50 202 -93 215 -152 36 -156 -235 -215 -503 -109
-20 8 -38 15 -40 15 -1 0 -2 -28 -1 -62 1 -73 7 -79 104 -104 67 -17 263 -24
329 -12 107 21 200 79 236 147 21 42 29 129 15 180 -23 86 -112 149 -315 222
-179 63 -225 99 -225 171 0 50 39 90 102 106 67 17 211 7 299 -21 l77 -24 25
58 25 58 -61 20 c-92 29 -113 32 -222 36 -61 2 -125 -2 -163 -10z"/>
</g>
</svg>
